<svg width="31" height="31" viewBox="0 0 31 31" fill="none" xmlns="http://www.w3.org/2000/svg">
<path d="M6.45835 16.7917L20.8863 16.7917L14.5829 23.095C14.0792 23.5988 14.0792 24.4254 14.5829 24.9292C14.7024 25.0489 14.8444 25.1439 15.0006 25.2087C15.1569 25.2736 15.3244 25.3069 15.4936 25.3069C15.6627 25.3069 15.8302 25.2736 15.9865 25.2087C16.1427 25.1439 16.2847 25.0489 16.4042 24.9292L24.9163 16.4171C25.036 16.2976 25.131 16.1557 25.1958 15.9994C25.2606 15.8431 25.294 15.6756 25.294 15.5065C25.294 15.3373 25.2606 15.1698 25.1958 15.0135C25.131 14.8573 25.036 14.7153 24.9163 14.5958L16.4042 6.08376C16.2846 5.96417 16.1426 5.86932 15.9864 5.8046C15.8301 5.73988 15.6627 5.70657 15.4936 5.70657C15.3244 5.70657 15.157 5.73988 15.0007 5.8046C14.8445 5.86932 14.7025 5.96417 14.5829 6.08376C14.4633 6.20334 14.3685 6.34531 14.3038 6.50156C14.2391 6.6578 14.2057 6.82527 14.2057 6.99439C14.2057 7.1635 14.2391 7.33096 14.3038 7.48721C14.3685 7.64346 14.4633 7.78542 14.5829 7.90501L20.8863 14.2083L6.45835 14.2083C5.74793 14.2083 5.16668 14.7896 5.16668 15.5C5.16668 16.2104 5.74793 16.7917 6.45835 16.7917Z" fill="white"/>
</svg>
