<svg width="31" height="31" viewBox="0 0 31 31" fill="none" xmlns="http://www.w3.org/2000/svg">
<path d="M24.5417 14.2083H10.1137L16.4171 7.90499C16.9208 7.40124 16.9208 6.57457 16.4171 6.07082C16.2976 5.95108 16.1556 5.85608 15.9994 5.79127C15.8431 5.72645 15.6756 5.69308 15.5064 5.69308C15.3373 5.69308 15.1698 5.72645 15.0135 5.79127C14.8573 5.85608 14.7153 5.95108 14.5958 6.07082L6.08373 14.5829C5.96399 14.7024 5.86899 14.8443 5.80418 15.0006C5.73936 15.1569 5.70599 15.3244 5.70599 15.4935C5.70599 15.6627 5.73936 15.8302 5.80418 15.9865C5.86899 16.1427 5.96399 16.2847 6.08373 16.4042L14.5958 24.9162C14.7154 25.0358 14.8574 25.1307 15.0136 25.1954C15.1699 25.2601 15.3373 25.2934 15.5064 25.2934C15.6756 25.2934 15.843 25.2601 15.9993 25.1954C16.1555 25.1307 16.2975 25.0358 16.4171 24.9162C16.5367 24.7967 16.6315 24.6547 16.6962 24.4984C16.7609 24.3422 16.7943 24.1747 16.7943 24.0056C16.7943 23.8365 16.7609 23.669 16.6962 23.5128C16.6315 23.3565 16.5367 23.2146 16.4171 23.095L10.1137 16.7917H24.5417C25.2521 16.7917 25.8333 16.2104 25.8333 15.5C25.8333 14.7896 25.2521 14.2083 24.5417 14.2083Z" fill="black"/>
</svg>
