<svg width="28" height="28" viewBox="0 0 28 28" fill="none" xmlns="http://www.w3.org/2000/svg">
<path d="M5.83683 25.6667H22.1702C23.457 25.6667 24.5035 24.6202 24.5035 23.3333V12.8333C24.5037 12.6801 24.4735 12.5284 24.4149 12.3868C24.3562 12.2453 24.2702 12.1167 24.1617 12.0085L14.8283 2.67517C14.7201 2.56673 14.5915 2.4807 14.45 2.42201C14.3084 2.36331 14.1567 2.3331 14.0035 2.3331C13.8503 2.3331 13.6986 2.36331 13.557 2.42201C13.4155 2.4807 13.2869 2.56673 13.1787 2.67517L3.84534 12.0085C3.73684 12.1167 3.65079 12.2453 3.59212 12.3868C3.53346 12.5284 3.50334 12.6801 3.5035 12.8333V23.3333C3.5035 24.6202 4.55 25.6667 5.83683 25.6667ZM11.6702 23.3333V17.5H16.3368V23.3333H11.6702ZM5.83683 13.3163L14.0035 5.14967L22.1702 13.3163L22.1713 23.3333H18.6702V17.5C18.6702 16.2132 17.6237 15.1667 16.3368 15.1667H11.6702C10.3833 15.1667 9.33683 16.2132 9.33683 17.5V23.3333H5.83683V13.3163Z" fill="white"/>
</svg>
