<svg width="34" height="35" viewBox="0 0 34 35" fill="none" xmlns="http://www.w3.org/2000/svg">
<path d="M27.2 17.5C27.2 18.4678 27.1184 19.25 26.1783 19.25H18.7V26.9483C18.7 27.9143 17.9401 28 17 28C16.0599 28 15.3 27.9143 15.3 26.9483V19.25H7.8217C6.8833 19.25 6.8 18.4678 6.8 17.5C6.8 16.5323 6.8833 15.75 7.8217 15.75H15.3V8.05175C15.3 7.084 16.0599 7 17 7C17.9401 7 18.7 7.084 18.7 8.05175V15.75H26.1783C27.1184 15.75 27.2 16.5323 27.2 17.5Z" fill="#FE243D"/>
<path d="M27.2 17.5C27.2 18.4678 27.1184 19.25 26.1783 19.25H18.7V26.9483C18.7 27.9143 17.9401 28 17 28C16.0599 28 15.3 27.9143 15.3 26.9483V19.25H7.8217C6.8833 19.25 6.8 18.4678 6.8 17.5C6.8 16.5323 6.8833 15.75 7.8217 15.75H15.3V8.05175C15.3 7.084 16.0599 7 17 7C17.9401 7 18.7 7.084 18.7 8.05175V15.75H26.1783C27.1184 15.75 27.2 16.5323 27.2 17.5Z" fill="#FE243D"/>
</svg>
