<svg width="21" height="19" viewBox="0 0 21 19" fill="none" xmlns="http://www.w3.org/2000/svg">
<path d="M18.1127 3.16303C17.6702 2.73151 17.1447 2.38919 16.5663 2.15564C15.9879 1.9221 15.368 1.80189 14.7419 1.80189C14.1159 1.80189 13.496 1.9221 12.9176 2.15564C12.3392 2.38919 11.8137 2.73151 11.3711 3.16303L10.4526 4.05816L9.53409 3.16303C8.6401 2.29179 7.42758 1.80234 6.16328 1.80234C4.89898 1.80234 3.68647 2.29179 2.79247 3.16303C1.89848 4.03426 1.39624 5.2159 1.39624 6.44801C1.39624 7.68012 1.89848 8.86177 2.79247 9.733L3.711 10.6281L10.4526 17.1981L17.1942 10.6281L18.1127 9.733C18.5555 9.30168 18.9068 8.78957 19.1464 8.22592C19.3861 7.66227 19.5094 7.05813 19.5094 6.44801C19.5094 5.83789 19.3861 5.23375 19.1464 4.6701C18.9068 4.10646 18.5555 3.59434 18.1127 3.16303Z" fill="#FE243D" stroke="#FE243D" stroke-width="2" stroke-linecap="round" stroke-linejoin="round"/>
</svg>
