<svg width="20" height="20" viewBox="0 0 20 20" fill="none" xmlns="http://www.w3.org/2000/svg">
<path fill-rule="evenodd" clip-rule="evenodd" d="M2.92751 8.76467C2.92751 5.54608 5.54599 2.9276 8.76458 2.9276C11.9832 2.9276 14.6031 5.54608 14.6031 8.76467C14.6031 11.9833 11.9832 14.6017 8.76458 14.6017C5.54599 14.6017 2.92751 11.9833 2.92751 8.76467ZM19.5706 17.501L15.9027 13.833C16.9228 12.3987 17.5303 10.6525 17.5303 8.76439C17.5303 3.93139 13.5974 0 8.76439 0C3.93285 0 0 3.93139 0 8.76439C0 13.5974 3.93285 17.5288 8.76439 17.5288C10.6525 17.5288 12.4001 16.9228 13.833 15.9027L17.501 19.5706C17.7864 19.856 18.1611 19.9994 18.5358 19.9994C18.9105 19.9994 19.2852 19.856 19.5706 19.5706C20.1429 18.9983 20.1429 18.0718 19.5706 17.501Z" fill="#BBBBBB"/>
<mask id="mask0" mask-type="alpha" maskUnits="userSpaceOnUse" x="0" y="0" width="20" height="20">
<path fill-rule="evenodd" clip-rule="evenodd" d="M2.92751 8.76467C2.92751 5.54608 5.54599 2.9276 8.76458 2.9276C11.9832 2.9276 14.6031 5.54608 14.6031 8.76467C14.6031 11.9833 11.9832 14.6017 8.76458 14.6017C5.54599 14.6017 2.92751 11.9833 2.92751 8.76467ZM19.5706 17.501L15.9027 13.833C16.9228 12.3987 17.5303 10.6525 17.5303 8.76439C17.5303 3.93139 13.5974 0 8.76439 0C3.93285 0 0 3.93139 0 8.76439C0 13.5974 3.93285 17.5288 8.76439 17.5288C10.6525 17.5288 12.4001 16.9228 13.833 15.9027L17.501 19.5706C17.7864 19.856 18.1611 19.9994 18.5358 19.9994C18.9105 19.9994 19.2852 19.856 19.5706 19.5706C20.1429 18.9983 20.1429 18.0718 19.5706 17.501Z" fill="white"/>
</mask>
<g mask="url(#mask0)">
</g>
</svg>
