<svg width="28" height="28" viewBox="0 0 28 28" fill="none" xmlns="http://www.w3.org/2000/svg">
<path d="M5.83687 23.3333C5.83687 24.6202 6.88337 25.6667 8.17021 25.6667H19.8369C21.1237 25.6667 22.1702 24.6202 22.1702 23.3333V9.33334H24.5035V7.00001H19.8369V4.66668C19.8369 3.37984 18.7904 2.33334 17.5035 2.33334H10.5035C9.21671 2.33334 8.17021 3.37984 8.17021 4.66668V7.00001H3.50354V9.33334H5.83687V23.3333ZM10.5035 4.66668H17.5035V7.00001H10.5035V4.66668ZM9.33687 9.33334H19.8369L19.838 23.3333H8.17021V9.33334H9.33687Z" fill="black"/>
<path d="M10.5035 11.6667H12.8369V21H10.5035V11.6667ZM15.1702 11.6667H17.5035V21H15.1702V11.6667Z" fill="black"/>
</svg>
