<svg width="22" height="22" viewBox="0 0 22 22" fill="none" xmlns="http://www.w3.org/2000/svg">
<path d="M10.8333 0C4.96058 0 0 4.96058 0 10.8333C0 14.2881 1.72467 17.4178 4.33333 19.4177V19.5H4.44383C6.25083 20.8488 8.46408 21.6667 10.8333 21.6667C13.2026 21.6667 15.4158 20.8488 17.2228 19.5H17.3333V19.4177C19.942 17.4178 21.6667 14.2892 21.6667 10.8333C21.6667 4.96058 16.7061 0 10.8333 0ZM6.58017 18.3376C6.73981 17.6154 7.14084 16.9693 7.71709 16.5056C8.29334 16.042 9.01041 15.7887 9.75 15.7874H11.9167C12.6562 15.7889 13.3732 16.0423 13.9494 16.5059C14.5256 16.9695 14.9267 17.6155 15.0865 18.3376C13.8212 19.071 12.3673 19.5 10.8333 19.5C9.29933 19.5 7.8455 19.071 6.58017 18.3376ZM16.9108 16.9444C16.4976 15.9606 15.8034 15.1205 14.915 14.5293C14.0267 13.9381 12.9837 13.6221 11.9167 13.6208H9.75C8.68293 13.6221 7.63996 13.9381 6.75162 14.5293C5.86329 15.1205 5.16906 15.9606 4.75583 16.9444C3.16658 15.3638 2.16667 13.1907 2.16667 10.8333C2.16667 6.13492 6.13492 2.16667 10.8333 2.16667C15.5318 2.16667 19.5 6.13492 19.5 10.8333C19.5 13.1907 18.5001 15.3638 16.9108 16.9444Z" fill="white"/>
<path d="M10.8333 4.33337C8.36333 4.33337 6.5 6.19671 6.5 8.66671C6.5 11.1367 8.36333 13 10.8333 13C13.3033 13 15.1667 11.1367 15.1667 8.66671C15.1667 6.19671 13.3033 4.33337 10.8333 4.33337ZM10.8333 10.8334C9.55717 10.8334 8.66667 9.94287 8.66667 8.66671C8.66667 7.39054 9.55717 6.50004 10.8333 6.50004C12.1095 6.50004 13 7.39054 13 8.66671C13 9.94287 12.1095 10.8334 10.8333 10.8334Z" fill="white"/>
</svg>
